HIERARCHY
ROOT Hips
{
    OFFSET   0.000000   0.000000   0.000000
    CHANNELS 6 Xposition Yposition Zposition Zrotation Xrotation Yrotation
    JOINT Chest
    {
        OFFSET   0.000000   8.007230   0.000000
        CHANNELS 3 Zrotation Xrotation Yrotation
        JOINT Chest2
        {
            OFFSET   0.000000  22.077100   0.000000
            CHANNELS 3 Zrotation Xrotation Yrotation
            JOINT Neck
            {
                OFFSET   0.000000  23.255100   0.000000
                CHANNELS 3 Zrotation Xrotation Yrotation
                JOINT Head
                {
                    OFFSET   0.000000  14.370100   1.956600
                    CHANNELS 3 Zrotation Xrotation Yrotation
                    End Site
                    {
                        OFFSET   0.000000  19.566000   0.000000
                    }
                }
            }
            JOINT LeftCollar
            {
                OFFSET   3.911900  19.017000  -0.467063
                CHANNELS 3 Zrotation Xrotation Yrotation
                JOINT LeftShoulder
                {
                    OFFSET  10.383700   0.000000   0.000000
                    CHANNELS 3 Zrotation Xrotation Yrotation
                    JOINT LeftElbow
                    {
                        OFFSET  26.662100   0.001193   0.000980
                        CHANNELS 3 Zrotation Xrotation Yrotation
                        JOINT LeftWrist
                        {
                            OFFSET  28.869000  -0.000059  -0.000082
                            CHANNELS 3 Zrotation Xrotation Yrotation
                            JOINT LeftFinger0
                            {
                                OFFSET   2.044650  -2.323450   3.252850
                                CHANNELS 3 Zrotation Xrotation Yrotation
                                JOINT LeftFinger01
                                {
                                    OFFSET   3.088130   0.000000   0.000000
                                    CHANNELS 3 Zrotation Xrotation Yrotation
                                    JOINT LeftFinger02
                                    {
                                        OFFSET   2.639460   0.000000   0.000000
                                        CHANNELS 3 Zrotation Xrotation Yrotation
                                        End Site
                                        {
                                            OFFSET   2.582190   0.000000   0.000000
                                        }
                                    }
                                }
                            }
                            JOINT LeftFinger1
                            {
                                OFFSET   8.364480   0.000000   3.252850
                                CHANNELS 3 Zrotation Xrotation Yrotation
                                JOINT LeftFinger11
                                {
                                    OFFSET   4.646930   0.000000   0.000000
                                    CHANNELS 3 Zrotation Xrotation Yrotation
                                    JOINT LeftFinger12
                                    {
                                        OFFSET   2.323470   0.000000   0.000000
                                        CHANNELS 3 Zrotation Xrotation Yrotation
                                        End Site
                                        {
                                            OFFSET   2.273050   0.000000   0.000000
                                        }
                                    }
                                }
                            }
                            JOINT LeftFinger2
                            {
                                OFFSET   8.364490   0.000016   1.078090
                                CHANNELS 3 Zrotation Xrotation Yrotation
                                JOINT LeftFinger21
                                {
                                    OFFSET   5.111610   0.000000   0.000000
                                    CHANNELS 3 Zrotation Xrotation Yrotation
                                    JOINT LeftFinger22
                                    {
                                        OFFSET   2.788150   0.000016   0.000000
                                        CHANNELS 3 Zrotation Xrotation Yrotation
                                        End Site
                                        {
                                            OFFSET   2.727660   0.000000   0.000000
                                        }
                                    }
                                }
                            }
                            JOINT LeftFinger3
                            {
                                OFFSET   7.899780   0.000015  -1.078090
                                CHANNELS 3 Zrotation Xrotation Yrotation
                                JOINT LeftFinger31
                                {
                                    OFFSET   4.646930   0.000000   0.000000
                                    CHANNELS 3 Zrotation Xrotation Yrotation
                                    JOINT LeftFinger32
                                    {
                                        OFFSET   2.323470   0.000000   0.000000
                                        CHANNELS 3 Zrotation Xrotation Yrotation
                                        End Site
                                        {
                                            OFFSET   2.273050   0.000000   0.000000
                                        }
                                    }
                                }
                            }
                            JOINT LeftFinger4
                            {
                                OFFSET   7.435090   0.000000  -3.252850
                                CHANNELS 3 Zrotation Xrotation Yrotation
                                JOINT LeftFinger41
                                {
                                    OFFSET   3.717550   0.000000   0.000000
                                    CHANNELS 3 Zrotation Xrotation Yrotation
                                    JOINT LeftFinger42
                                    {
                                        OFFSET   1.858770   0.000000   0.000000
                                        CHANNELS 3 Zrotation Xrotation Yrotation
                                        End Site
                                        {
                                            OFFSET   1.818440   0.000000   0.000000
                                        }
                                    }
                                }
                            }
                        }
                    }
                }
            }
            JOINT RightCollar
            {
                OFFSET  -3.911910  19.017000  -0.467062
                CHANNELS 3 Zrotation Xrotation Yrotation
                JOINT RightShoulder
                {
                    OFFSET -10.383700   0.000014   0.000000
                    CHANNELS 3 Zrotation Xrotation Yrotation
                    JOINT RightElbow
                    {
                        OFFSET -26.662100   0.001225   0.001091
                        CHANNELS 3 Zrotation Xrotation Yrotation
                        JOINT RightWrist
                        {
                            OFFSET -28.869000  -0.000020  -0.000085
                            CHANNELS 3 Zrotation Xrotation Yrotation
                            JOINT RightFinger0
                            {
                                OFFSET  -2.044650  -2.323490   3.252850
                                CHANNELS 3 Zrotation Xrotation Yrotation
                                JOINT RightFinger01
                                {
                                    OFFSET  -3.088130   0.000000   0.000000
                                    CHANNELS 3 Zrotation Xrotation Yrotation
                                    JOINT RightFinger02
                                    {
                                        OFFSET  -2.639460   0.000000   0.000000
                                        CHANNELS 3 Zrotation Xrotation Yrotation
                                        End Site
                                        {
                                            OFFSET  -2.582190   0.000000   0.000000
                                        }
                                    }
                                }
                            }
                            JOINT RightFinger1
                            {
                                OFFSET  -8.364480   0.000000   3.252850
                                CHANNELS 3 Zrotation Xrotation Yrotation
                                JOINT RightFinger11
                                {
                                    OFFSET  -4.646930   0.000000   0.000000
                                    CHANNELS 3 Zrotation Xrotation Yrotation
                                    JOINT RightFinger12
                                    {
                                        OFFSET  -2.323470   0.000000   0.000000
                                        CHANNELS 3 Zrotation Xrotation Yrotation
                                        End Site
                                        {
                                            OFFSET  -2.273050   0.000000   0.000000
                                        }
                                    }
                                }
                            }
                            JOINT RightFinger2
                            {
                                OFFSET  -8.364480   0.000000   1.078090
                                CHANNELS 3 Zrotation Xrotation Yrotation
                                JOINT RightFinger21
                                {
                                    OFFSET  -5.111620   0.000000   0.000000
                                    CHANNELS 3 Zrotation Xrotation Yrotation
                                    JOINT RightFinger22
                                    {
                                        OFFSET  -2.788160   0.000000   0.000000
                                        CHANNELS 3 Zrotation Xrotation Yrotation
                                        End Site
                                        {
                                            OFFSET  -2.727660   0.000000   0.000000
                                        }
                                    }
                                }
                            }
                            JOINT RightFinger3
                            {
                                OFFSET  -7.899780   0.000000  -1.078090
                                CHANNELS 3 Zrotation Xrotation Yrotation
                                JOINT RightFinger31
                                {
                                    OFFSET  -4.646930   0.000000   0.000000
                                    CHANNELS 3 Zrotation Xrotation Yrotation
                                    JOINT RightFinger32
                                    {
                                        OFFSET  -2.323470   0.000000   0.000000
                                        CHANNELS 3 Zrotation Xrotation Yrotation
                                        End Site
                                        {
                                            OFFSET  -2.273050   0.000000   0.000000
                                        }
                                    }
                                }
                            }
                            JOINT RightFinger4
                            {
                                OFFSET  -7.435090   0.000000  -3.252850
                                CHANNELS 3 Zrotation Xrotation Yrotation
                                JOINT RightFinger41
                                {
                                    OFFSET  -3.717550   0.000000   0.000000
                                    CHANNELS 3 Zrotation Xrotation Yrotation
                                    JOINT RightFinger42
                                    {
                                        OFFSET  -1.858760   0.000000   0.000000
                                        CHANNELS 3 Zrotation Xrotation Yrotation
                                        End Site
                                        {
                                            OFFSET  -1.818440   0.000000   0.000000
                                        }
                                    }
                                }
                            }
                        }
                    }
                }
            }
        }
    }
    JOINT LeftHip
    {
        OFFSET   9.783030   0.000000   0.000000
        CHANNELS 3 Zrotation Xrotation Yrotation
        JOINT LeftKnee
        {
            OFFSET   0.000063 -41.789100   0.000608
            CHANNELS 3 Zrotation Xrotation Yrotation
            JOINT LeftAnkle
            {
                OFFSET   0.000048 -41.133200  -0.000184
                CHANNELS 3 Zrotation Xrotation Yrotation
                JOINT LeftToe
                {
                    OFFSET   0.000000  -6.358960  14.674500
                    CHANNELS 3 Zrotation Xrotation Yrotation
                    End Site
                    {
                        OFFSET   0.000000   0.000000   3.913200
                    }
                }
            }
        }
    }
    JOINT RightHip
    {
        OFFSET  -9.783030   0.000000   0.000000
        CHANNELS 3 Zrotation Xrotation Yrotation
        JOINT RightKnee
        {
            OFFSET   0.000071 -41.789100   0.001239
            CHANNELS 3 Zrotation Xrotation Yrotation
            JOINT RightAnkle
            {
                OFFSET   0.000037 -41.133200  -0.000166
                CHANNELS 3 Zrotation Xrotation Yrotation
                JOINT RightToe
                {
                    OFFSET   0.000000  -6.358960  14.674500
                    CHANNELS 3 Zrotation Xrotation Yrotation
                    End Site
                    {
                        OFFSET   0.000000   0.000000   3.913200
                    }
                }
            }
        }
    }
}
MOTION
Frames: 6
Frame Time:   0.016667
  1.965460  89.511700   2.370170  -3.593010  -8.018000  -4.281790   0.225569   4.962850   2.177890   0.262320   9.930690   4.360770   1.113140  -0.067890   0.010414   1.826400  -0.137494   0.252902  -2.692570  -0.305478  -0.241409 -73.592900  18.321600  -1.861630  -1.640040  -3.485780 -18.351900  18.471500 -12.259900   7.492180  40.354600  35.043700 -64.127500 -31.982200  -0.003360   0.007575 -10.983800  -0.004356   0.003315 -33.079500   7.702920 -11.627600 -27.707800  -0.009988  -0.001599 -19.395400  -0.003427   0.003777 -28.789100   0.590548  -1.096110 -42.342500  -0.000482  -0.003340 -28.200100  -0.009733  -0.003735 -28.771000   0.590294  -1.096240 -41.506600  -0.008216  -0.007744 -27.643400  -0.001588  -0.007143 -36.624000  -0.147655   0.208763 -54.936500  -0.009803  -0.008249 -36.587700   0.005191  -0.005885  10.427400   1.021900   1.723110  67.903500  16.888600  -3.175370  -3.245520  -3.543880  17.600200  -8.157390  -6.628120   0.956212 -37.494700  28.494700  59.075400  30.931300   0.000842  -0.000446  10.458100  -0.007173  -0.002993  32.295700   7.311160  11.383500  27.020800   0.007001   0.003981  18.914500  -0.001733   0.003423  28.632100   2.973460   5.425970  41.362800   0.002445  -0.005258  27.547600   0.002940  -0.002853  28.252300   2.088010   3.867520  34.411900   0.002479  -0.002577  22.918300   0.000064  -0.002209  37.861200  -0.471850  -0.607324  56.795500  -0.000898  -0.000760  37.825800  -0.003638  -0.000593   2.619020  11.555100   4.677230   0.570562   0.537514   8.242790  -1.819420  -4.834970   2.621780  -0.000000   0.000000   0.000000   1.467950   9.776520  -4.818640  -0.201511   2.147370  -7.823540   0.481412  -4.556600   2.386250  -0.000000   0.000000   0.000000
  1.965570  89.511700   2.374950  -3.593290  -8.024530  -4.281770   0.225613   4.964280   2.179240   0.262238   9.933550   4.363500   1.109560  -0.068666   0.010397   1.821580  -0.138849   0.263034  -2.702470  -0.301702  -0.241411 -73.588000  18.321900  -1.839440  -1.658010  -3.480480 -18.344800  18.459800 -12.229900   7.493290  40.349200  35.031000 -64.103900 -31.982400  -0.003358   0.007578 -10.983800  -0.004356   0.003322 -33.067800   7.691840 -11.617800 -27.696500  -0.009987  -0.001591 -19.387500  -0.003425   0.003786 -28.789200   0.590600  -1.083910 -42.318100  -0.000469  -0.003337 -28.183800  -0.009735  -0.003734 -28.771100   0.590346  -1.084040 -41.485900  -0.008204  -0.007735 -27.629600  -0.001589  -0.007134 -36.609200  -0.147655   0.204601 -54.914200  -0.009806  -0.008242 -36.572800   0.005187  -0.005879  10.427400   1.020240   1.722850  67.912500  16.888500  -3.183170  -3.242230  -3.544230  17.599500  -8.160450  -6.628980   0.933667 -37.503300  28.512800  59.061600  30.931700   0.000845  -0.000442  10.460300  -0.007172  -0.002995  32.284300   7.306280  11.380600  27.011500   0.007004   0.003985  18.908000  -0.001729   0.003418  28.632800   2.969750   5.419300  41.330900   0.002431  -0.005261  27.526400   0.002945  -0.002845  28.252500   2.086130   3.867450  34.406100   0.002483  -0.002583  22.914400   0.000067  -0.002210  37.855700  -0.471893  -0.607375  56.787200  -0.000891  -0.000768  37.820200  -0.003641  -0.000594   2.617880  11.569000   4.677440   0.570193   0.528590   8.238360  -1.818460  -4.831060   2.625430  -0.000000   0.000000   0.000000   1.467920   9.781200  -4.816860  -0.202389   2.152110  -7.835510   0.482347  -4.563070   2.393390  -0.000000   0.000000   0.000000
  1.965740  89.511700   2.382970  -3.594160  -8.038740  -4.281840   0.225626   4.968720   2.182360   0.261823   9.942430   4.369810   1.102880  -0.071982   0.010380   1.811930  -0.145425   0.278143  -2.718040  -0.293727  -0.241431 -73.577700  18.322300  -1.807200  -1.686310  -3.475350 -18.329100  18.444100 -12.197000   7.496610  40.337500  35.008100 -64.065800 -31.982700  -0.003342   0.007580 -10.983700  -0.004351   0.003333 -33.049700   7.680770 -11.608100 -27.680400  -0.009984  -0.001563 -19.376300  -0.003419   0.003809 -28.789300   0.590706  -1.071720 -42.285400  -0.000434  -0.003330 -28.162000  -0.009740  -0.003731 -28.771200   0.590452  -1.071850 -41.457600  -0.008175  -0.007711 -27.610700  -0.001589  -0.007110 -36.594200  -0.147654   0.198862 -54.891600  -0.009815  -0.008221 -36.557800   0.005178  -0.005863  10.427600   1.016680   1.722600  67.923000  16.888300  -3.193920  -3.234500  -3.546660  17.594800  -8.168340  -6.634770   0.893482 -37.520900  28.535600  59.052200  30.934300   0.000856  -0.000439  10.467100  -0.007164  -0.002997  32.275600   7.294860  11.367500  27.002100   0.007015   0.003996  18.901500  -0.001720   0.003408  28.634500   2.961200   5.403780  41.299000   0.002395  -0.005271  27.505100   0.002957  -0.002821  28.253000   2.081540   3.866970  34.400200   0.002492  -0.002595  22.910600   0.000078  -0.002212  37.850100  -0.471972  -0.607471  56.778900  -0.000872  -0.000781  37.814700  -0.003644  -0.000600   2.616150  11.591800   4.677800   0.569841   0.519668   8.231930  -1.817310  -4.827130   2.631280   0.000000   0.000000   0.000000   1.468250   9.795120  -4.812710  -0.205290   2.156810  -7.855670   0.483943  -4.573620   2.405490   0.000000   0.000000  -0.000000
  1.965830  89.511600   2.389380  -3.596790  -8.057690  -4.282060   0.225528   4.977140   2.186600   0.260932   9.959280   4.378400   1.095760  -0.079666   0.010381   1.800330  -0.161581   0.285612  -2.729140  -0.283526  -0.244788 -73.564400  18.322300  -1.795080  -1.710530  -3.495790 -18.305700  18.439400 -12.193500   7.503740  40.319300  34.977800 -64.033500 -31.981100  -0.003303   0.007562 -10.983600  -0.004330   0.003340 -33.041000   7.681010 -11.608200 -27.673700  -0.009972  -0.001513 -19.371600  -0.003410   0.003846 -28.789200   0.590849  -1.071900 -42.278800  -0.000382  -0.003319 -28.157700  -0.009749  -0.003725 -28.771200   0.590593  -1.072020 -41.451200  -0.008133  -0.007672 -27.606500  -0.001588  -0.007073 -36.594100  -0.146988   0.197103 -54.891500  -0.009826  -0.008184 -36.557700   0.005165  -0.005838  10.430800   1.012590   1.723880  67.925100  16.899500  -3.196210  -3.224770  -3.550590  17.574700  -8.189960  -6.657710   0.854650 -37.516000  28.546700  59.063900  30.958200   0.000883  -0.000453  10.480800  -0.007141  -0.002995  32.289000   7.273550  11.330000  27.008900   0.007034   0.004012  18.906200  -0.001704   0.003395  28.637500   2.945540   5.375080  41.301400   0.002344  -0.005286  27.505000   0.002976  -0.002777  28.254200   2.072660   3.852530  34.410900   0.002504  -0.002608  22.917700   0.000098  -0.002225  37.850400  -0.472077  -0.607600  56.783200  -0.000843  -0.000793  37.814900  -0.003644  -0.000614   2.617920  11.607500   4.678050   0.570515   0.530377   8.228490  -1.817750  -4.835150   2.635830  -0.000000   0.000000   0.000000   1.470900   9.820360  -4.805650  -0.210161   2.156400  -7.873150   0.485337  -4.581780   2.415840  -0.000000   0.000000  -0.000000
  1.965870  89.511500   2.396040  -3.601220  -8.079480  -4.282440   0.225306   4.986910   2.192000   0.259632   9.978840   4.389350   1.088290  -0.088217   0.010381   1.787880  -0.179255   0.292721  -2.737890  -0.271893  -0.251066 -73.549900  18.321600  -1.781290  -1.735380  -3.525870 -18.285000  18.433500 -12.192800   7.508650  40.308500  34.955800 -64.017700 -31.977900  -0.003254   0.007544 -10.983500  -0.004298   0.003344 -33.035100   7.681670 -11.609100 -27.669000  -0.009957  -0.001448 -19.368300  -0.003395   0.003894 -28.789200   0.590990  -1.073120 -42.274300  -0.000315  -0.003305 -28.154700  -0.009761  -0.003719 -28.771100   0.590733  -1.073250 -41.445700  -0.008079  -0.007620 -27.602800  -0.001585  -0.007024 -36.593900  -0.145737   0.196149 -54.891300  -0.009841  -0.008137 -36.557600   0.005148  -0.005806  10.437500   1.006640   1.727580  67.927400  16.922300  -3.199500  -3.211320  -3.563060  17.538000  -8.211670  -6.675740   0.815102 -37.494700  28.553200  59.080600  30.989300   0.000915  -0.000473  10.494700  -0.007113  -0.002991  32.299800   7.258780  11.302600  27.015700   0.007063   0.004031  18.911000  -0.001684   0.003379  28.639600   2.934710   5.355220  41.303800   0.002280  -0.005307  27.504900   0.003001  -0.002722  28.255300   2.066480   3.838510  34.421600   0.002520  -0.002624  22.924800   0.000124  -0.002243  37.850600  -0.472145  -0.607684  56.787500  -0.000804  -0.000809  37.815200  -0.003644  -0.000632   2.622640  11.626100   4.678360   0.571175   0.541084   8.226710  -1.818230  -4.843590   2.639550  -0.000000   0.000000  -0.000000   1.476890   9.850530  -4.799730  -0.216477   2.155950  -7.889110   0.486693  -4.589270   2.425900   0.000000   0.000000   0.000000
  1.964610  89.511500   2.403360  -3.606990  -8.101210  -4.284370   0.224894   4.995760   2.198450   0.257882   9.996520   4.402420   1.081790  -0.095436   0.010343   1.777180  -0.192658   0.303403  -2.742870  -0.260913  -0.257727 -73.537100  18.304200  -1.750290  -1.755820  -3.544790 -18.279100  18.419900 -12.199500   7.506110  40.310400  34.960900 -64.031100 -31.974100  -0.003209   0.007547 -10.983400  -0.004269   0.003333 -33.028300   7.682910 -11.617600 -27.663700  -0.009950  -0.001377 -19.364600  -0.003372   0.003955 -28.789100   0.591090  -1.080010 -42.258200  -0.000238  -0.003287 -28.144000  -0.009774  -0.003711 -28.771000   0.590835  -1.080150 -41.427700  -0.008012  -0.007558 -27.590800  -0.001582  -0.006965 -36.587600  -0.144685   0.194841 -54.881900  -0.009861  -0.008082 -36.551300   0.005128  -0.005768  10.443600   1.001330   1.731280  67.929800  16.957600  -3.205700  -3.191020  -3.597050  17.487000  -8.219450  -6.656980   0.778128 -37.475400  28.548500  59.103200  31.003800   0.000943  -0.000477  10.502000  -0.007090  -0.002988  32.298400   7.259930  11.305000  27.014700   0.007104   0.004050  18.910300  -0.001663   0.003363  28.638500   2.941230   5.367160  41.303100   0.002205  -0.005338  27.505000   0.003031  -0.002665  28.254600   2.071690   3.848250  34.420100   0.002537  -0.002644  22.923800   0.000152  -0.002261  37.850400  -0.472136  -0.607672  56.784400  -0.000752  -0.000838  37.815000  -0.003648  -0.000649   2.627920  11.656600   4.679200   0.571219   0.534752   8.226290  -1.817820  -4.843860   2.641680  -0.000000   0.000000   0.000000   1.486510   9.879590  -4.798670  -0.224767   2.155860  -7.900120   0.487834  -4.595490   2.434260   0.000000   0.000000   0.000000
